<svg width="50" height="50" viewBox="0 0 50 50" fill="none" xmlns="http://www.w3.org/2000/svg">
<path d="M42.2763 7.72381C46.2935 11.7412 41.8156 22.7327 32.2742 32.2742C22.7327 41.8156 11.7412 46.2935 7.72382 42.2763C3.7064 38.2588 8.18444 27.2673 17.7258 17.7258C27.2673 8.18444 38.2588 3.7064 42.2763 7.72381Z" stroke="white" stroke-width="1.25" stroke-linecap="round"/>
<path d="M7.72382 7.72381C3.7064 11.7412 8.18444 22.7327 17.7258 32.2742C27.2673 41.8156 38.2588 46.2935 42.2763 42.2763C46.2935 38.2588 41.8156 27.2673 32.2742 17.7258C22.7327 8.18444 11.7412 3.7064 7.72382 7.72381Z" stroke="white" stroke-width="1.25" stroke-linecap="round"/>
<path d="M29.1666 25C29.1666 27.3013 27.3012 29.1667 25 29.1667C22.6987 29.1667 20.8333 27.3013 20.8333 25C20.8333 22.6988 22.6987 20.8333 25 20.8333C27.3012 20.8333 29.1666 22.6988 29.1666 25Z" stroke="white" stroke-width="1.25" stroke-linecap="round"/>
</svg>
